<?xml version="1.0" encoding="UTF-8" standalone="no"?>
<!-- Created with Inkscape (http://www.inkscape.org/) -->

<svg
   width="44"
   height="44"
   version="1.1"
   viewBox="0 0 11.641771 11.641771"
   xml:space="preserve"
   id="svg1"
   sodipodi:docname="Logo 2.svg"
   inkscape:version="1.3.2 (091e20e, 2023-11-25, custom)"
   xmlns:inkscape="http://www.inkscape.org/namespaces/inkscape"
   xmlns:sodipodi="http://sodipodi.sourceforge.net/DTD/sodipodi-0.dtd"
   xmlns="http://www.w3.org/2000/svg"
   xmlns:svg="http://www.w3.org/2000/svg"
   xmlns:rdf="http://www.w3.org/1999/02/22-rdf-syntax-ns#"
   xmlns:cc="http://creativecommons.org/ns#"
   xmlns:dc="http://purl.org/dc/elements/1.1/"><defs
     id="defs1" /><sodipodi:namedview
     id="namedview1"
     pagecolor="#505050"
     bordercolor="#eeeeee"
     borderopacity="1"
     inkscape:showpageshadow="0"
     inkscape:pageopacity="0"
     inkscape:pagecheckerboard="0"
     inkscape:deskcolor="#505050"
     inkscape:zoom="13.405714"
     inkscape:cx="18.648764"
     inkscape:cy="29.054774"
     inkscape:window-width="2560"
     inkscape:window-height="1369"
     inkscape:window-x="-8"
     inkscape:window-y="1072"
     inkscape:window-maximized="1"
     inkscape:current-layer="svg1" /><title
     id="title1">Placard</title><path
     d="M 5.3444831,11.637778 C 4.1643711,11.535407 3.082867,11.106047 2.1729969,10.37868 1.2712337,9.6578434 0.59819977,8.6686493 0.25341815,7.5574226 0.14052345,7.1935339 0.06171262,6.7965498 0.0189351,6.3762512 0.00114399,6.2014559 -0.0063778,5.6487262 0.00635924,5.4521426 0.09892033,4.023594 0.69459763,2.7015555 1.6978711,1.698101 2.1398414,1.2560648 2.6294754,0.90198788 3.1879081,0.62060039 3.8498384,0.28706199 4.5118631,0.096063 5.2736004,0.01886205 5.4485653,0.00113296 6.0015533,-0.00635743 6.1975707,0.0063468 c 1.4283362,0.09257488 2.7493261,0.68799387 3.7534829,1.6917955 0.6674824,0.6672976 1.1636454,1.4899751 1.4444554,2.3950275 0.113399,0.3654977 0.196317,0.7849445 0.233404,1.1806351 0.0071,0.075466 0.01286,0.1569793 0.01286,0.1811462 0,0.1702267 -0.104147,0.31541 -0.265179,0.3696622 -0.05133,0.017295 -0.05485,0.017333 -1.5692137,0.017333 -1.6618915,0 -1.5564382,0.00307 -1.6459615,-0.04781 C 8.0270497,5.7177817 7.9545318,5.6078642 7.9109722,5.4145054 7.8615514,5.1951466 7.8179188,5.0694516 7.7272032,4.8850779 7.523561,4.4711834 7.1738176,4.1230062 6.756105,3.9183151 6.6013256,3.8424708 6.4834627,3.7992453 6.32527,3.7603038 6.1570369,3.7188925 6.0530849,3.7046953 5.8787574,3.6993163 5.3182429,3.6820256 4.7672861,3.8988868 4.3482803,4.3017484 4.124696,4.5167091 3.9286119,4.818935 3.822843,5.1115538 3.7831032,5.2215093 3.7351115,5.4123189 3.7168093,5.533083 c -0.031604,0.2086004 -0.023468,0.4821668 0.020802,0.6993516 0.1329223,0.652154 0.561871,1.2089662 1.1554124,1.4997871 0.1569468,0.076904 0.27398,0.1195336 0.434873,0.1583958 0.1781603,0.04303 0.2102283,0.053069 0.2714311,0.084968 0.1089548,0.056789 0.1930176,0.1541432 0.2253854,0.2610289 0.016524,0.054561 0.016709,0.07463 0.014519,1.5870205 l -0.0022,1.5317471 -0.031117,0.06518 c -0.053272,0.111587 -0.1493822,0.189456 -0.2634943,0.21349 -0.041538,0.0087 -0.1217271,0.01021 -0.1978096,0.0036 z M 4.6308827,9.6167349 V 8.9589651 l -0.089722,-0.03603 C 4.4238215,8.8758138 4.1570431,8.7397076 4.0483721,8.6715137 3.3448979,8.2301086 2.8368419,7.5578264 2.6070716,6.7644264 2.4208895,6.1214847 2.4349931,5.3928554 2.6458493,4.7610507 2.7505897,4.4472149 2.9105867,4.1335999 3.1034972,3.8639488 3.6313317,3.1262017 4.4576405,2.628986 5.3569747,2.5078686 c 0.2986573,-0.040216 0.6369154,-0.0402 0.9347586,4.41e-5 0.5297904,0.071576 1.0519153,0.2799583 1.4937278,0.5961541 0.3969878,0.2841229 0.7299087,0.6592211 0.972486,1.0957358 0.060269,0.1084505 0.1647128,0.3318981 0.1872356,0.400549 l 0.010268,0.031304 h 0.6587128 c 0.3622885,0 0.6587125,-0.00303 0.6587125,-0.00676 0,-0.00373 -0.01901,-0.068298 -0.04224,-0.143511 C 9.9419256,3.5468308 9.3737868,2.7370569 8.5933123,2.1476859 7.5400405,1.3523615 6.1865599,1.0423904 4.9186909,1.3062366 3.8006272,1.5389342 2.829592,2.1519766 2.1471578,3.055988 1.7669517,3.5596714 1.5029556,4.1135807 1.350564,4.7276548 1.2047873,5.3149437 1.1761355,5.8975634 1.2639459,6.4889535 c 0.1941313,1.3074627 0.9393643,2.4699568 2.0481227,3.1949898 0.2887932,0.1888379 0.5896932,0.3408257 0.9184818,0.4638997 0.1097939,0.0411 0.3690709,0.124989 0.3897643,0.126105 0.00826,4.66e-4 0.010433,-0.136254 0.010433,-0.6572015 z"
     fill="#ffffff"
     id="path1"
     style="stroke-width:0.0315469" /><ellipse
     cx="5.8245907"
     cy="5.8254647"
     fill="#ffffff"
     style="mix-blend-mode:normal;stroke-width:0.0315469"
     id="circle1"
     rx="1.1267388"
     ry="1.1269068" /><metadata
     id="metadata1"><rdf:RDF><cc:Work
         rdf:about=""><dc:title>Placard</dc:title><dc:creator><cc:Agent><dc:title>Veehive</dc:title></cc:Agent></dc:creator><dc:rights><cc:Agent><dc:title>Veehive</dc:title></cc:Agent></dc:rights><dc:publisher><cc:Agent><dc:title>Veehive</dc:title></cc:Agent></dc:publisher><dc:language>yes</dc:language><dc:subject><rdf:Bag><rdf:li>peehive veehive placard</rdf:li></rdf:Bag></dc:subject></cc:Work></rdf:RDF></metadata></svg>
